<svg width="125" height="125" viewBox="0 0 125 125" fill="none" xmlns="http://www.w3.org/2000/svg">
<path d="M2.36804 77.787C0.686118 71.3842 0.103169 64.9887 0.517248 58.5714C1.37772 45.2362 5.90802 33.2729 14.4688 22.9956C24.2296 11.2778 36.6819 3.89622 51.7655 1.49716C70.7511 -1.52253 87.9147 3.14185 102.724 15.6879C114.792 25.9112 121.957 39.0298 124.102 54.6065C127.696 80.7062 115.022 105.711 91.3831 118.002C81.1473 123.325 70.1877 125.708 58.7143 124.696C36.0411 122.698 18.9972 111.616 7.80719 91.6565C5.38176 87.3302 3.65261 82.7128 2.36804 77.787ZM40.6645 116.395C49.0058 119.791 57.6236 121.278 66.6197 120.694C75.0858 120.145 83.0789 118.06 90.4229 113.877C109.89 102.79 119.964 85.8661 120.665 63.496C120.962 54.0242 118.603 44.9499 114.207 36.474C102.595 14.0795 78.1447 1.46972 53.3493 5.29904C38.6077 7.57567 26.3496 14.5285 17.1458 26.2511C5.02187 41.693 1.3785 59.2111 6.73946 78.2081C11.8005 96.1421 23.378 108.739 40.6645 116.395Z" fill="white"/>
<path d="M101.971 74.1365C93.4468 85.2097 78.8313 86.6898 68.8627 77.338C62.4363 71.3092 60.435 63.6937 62.7246 55.3098C64.9941 46.9999 70.6664 41.7467 79.0796 39.9463C91.4794 37.2928 102.972 44.9985 105.506 57.4815C106.72 63.4604 105.418 69.0019 101.971 74.1365ZM89.1606 49.4727C87.3534 48.6911 85.4827 48.3468 83.5062 48.371C78.2875 48.435 73.8165 51.493 71.7237 56.5319C69.7546 61.2733 70.9157 66.8294 74.6707 70.6338C78.2885 74.299 83.9745 75.5716 88.63 73.6225C93.5802 71.5501 96.5125 67.8398 96.8471 62.4082C97.2072 56.5618 94.5819 52.2985 89.1606 49.4727Z" fill="white"/>
<path d="M50.3245 57.683C54.5093 66.2014 58.8911 74.4871 62.788 82.9148C62.3609 83.5603 61.8255 83.473 61.344 83.4745C58.6311 83.4828 55.9177 83.4503 53.2053 83.4787C52.1391 83.4899 51.4935 83.0949 51.0145 82.0927C46.3013 72.2301 41.5611 62.38 36.7784 52.5505C36.2467 51.4579 36.1357 50.5293 36.6374 49.4186C37.9087 46.6042 39.0906 43.7489 40.3212 40.9157C40.4702 40.5725 40.5821 40.1752 41.2893 39.907C44.271 45.7752 47.2684 51.6742 50.3245 57.683Z" fill="white"/>
<path d="M22.7694 75.0492C24.9893 70.4993 27.1527 66.0595 29.2996 61.6537C30.205 61.8433 30.3006 62.4569 30.5298 62.9163C32.3611 66.5866 34.1559 70.2749 35.9975 73.9401C36.3939 74.729 36.5617 75.459 36.2355 76.3113C35.4872 78.2661 34.7718 80.2343 34.0786 82.2098C33.8191 82.9495 33.4678 83.491 32.5888 83.4883C28.3862 83.4758 24.1835 83.4743 19.9809 83.4581C19.6532 83.4568 19.3133 83.4004 18.9659 82.8688C20.1763 80.3783 21.4447 77.7688 22.7694 75.0492Z" fill="white"/>
</svg>
