<svg width="24" height="25" viewBox="0 0 24 25" fill="none" xmlns="http://www.w3.org/2000/svg">
<path fill-rule="evenodd" clip-rule="evenodd" d="M24 12.0857C24 18.7131 18.6274 24.0857 12 24.0857C5.37258 24.0857 0 18.7131 0 12.0857C0 5.45827 5.37258 0.0856934 12 0.0856934C18.6274 0.0856934 24 5.45827 24 12.0857ZM6.006 8.48569C6.006 7.82569 6.54 7.28569 7.2 7.28569H16.8C17.46 7.28569 18 7.82569 18 8.48569V15.6857C18 16.3457 17.46 16.8857 16.8 16.8857H7.2C6.54 16.8857 6 16.3457 6 15.6857L6.006 8.48569ZM12 12.6857L7.20001 9.68566V15.6857H16.8V9.68566L12 12.6857ZM12 11.4857L7.20001 8.48571H16.8L12 11.4857Z" fill="black"/>
</svg>
