<svg width="24" height="25" viewBox="0 0 24 25" fill="none" xmlns="http://www.w3.org/2000/svg">
<g clip-path="url(#clip0_972_48)">
<path fill-rule="evenodd" clip-rule="evenodd" d="M12 0.0856934C18.6276 0.0856934 24 5.59361 24 12.3892C24 17.824 20.5656 22.4344 15.8004 24.0628C15.192 24.184 14.976 23.7998 14.976 23.4722C14.976 23.0666 14.9904 21.7419 14.9904 20.0955C14.9904 18.9483 14.6064 18.1995 14.1756 17.8179C16.848 17.5131 19.656 16.4726 19.656 11.747C19.656 10.403 19.1904 9.30628 18.42 8.44468C18.5448 8.13388 18.9564 6.88244 18.3024 5.18804C18.3024 5.18804 17.2968 4.85836 15.006 6.44956C14.0472 6.17716 13.02 6.0401 12 6.0353C10.98 6.0401 9.954 6.17716 8.9964 6.44956C6.7032 4.85836 5.6952 5.18804 5.6952 5.18804C5.0436 6.88244 5.4552 8.13388 5.5788 8.44468C4.812 9.30628 4.3428 10.403 4.3428 11.747C4.3428 16.4606 7.1448 17.5171 9.81 17.8279C9.4668 18.1351 9.156 18.677 9.048 19.4726C8.364 19.787 6.6264 20.3311 5.556 18.4507C5.556 18.4507 4.9212 17.2686 3.7164 17.1822C3.7164 17.1822 2.5464 17.1666 3.6348 17.9298C3.6348 17.9298 4.4208 18.3078 4.9668 19.7298C4.9668 19.7298 5.6712 21.9258 9.0096 21.1818C9.0156 22.2102 9.0264 23.1794 9.0264 23.4722C9.0264 23.7974 8.8056 24.178 8.2068 24.064C3.438 22.438 0 17.8252 0 12.3892C0 5.59361 5.3736 0.0856934 12 0.0856934Z" fill="#080700"/>
</g>
<defs>
<clipPath id="clip0_972_48">
<rect width="24" height="24" fill="white" transform="translate(0 0.0856934)"/>
</clipPath>
</defs>
</svg>
