<svg width="25" height="25" viewBox="0 0 25 25" fill="none" xmlns="http://www.w3.org/2000/svg">
<path fill-rule="evenodd" clip-rule="evenodd" d="M12.0857 24.1714C18.7605 24.1714 24.1714 18.7605 24.1714 12.0857C24.1714 5.41096 18.7605 0 12.0857 0C5.41096 0 0 5.41096 0 12.0857C0 18.7605 5.41096 24.1714 12.0857 24.1714ZM8.68423 9.59382C7.66647 8.10782 6.80327 6.84837 6.766 6.79506L6.69824 6.69812L8.34936 6.69825L10.0005 6.69838L11.4105 8.75777C12.1861 9.89044 12.8293 10.8282 12.8399 10.8417C12.8584 10.8652 12.8697 10.8542 13.0892 10.5991C13.5893 10.0177 13.6983 9.89054 13.8054 9.76345C13.8667 9.69079 13.9202 9.62853 13.9244 9.62509C13.9286 9.62165 14.1365 9.37962 14.3863 9.08723C14.6362 8.79485 14.8803 8.51028 14.9287 8.45487C14.9771 8.39946 15.0448 8.32084 15.0792 8.28016C15.1135 8.23948 15.1951 8.1441 15.2605 8.06819C15.4085 7.89642 15.9299 7.28852 16.2183 6.95142L16.435 6.69812H16.9222C17.381 6.69812 17.4084 6.69937 17.3923 6.7196C17.3829 6.73142 17.2037 6.94108 16.9941 7.18554L16.2594 8.04278C16.0649 8.2698 15.8764 8.48933 15.8406 8.53061C15.8048 8.57188 15.6501 8.75201 15.497 8.93088L14.8119 9.73038C13.5082 11.2511 13.3099 11.4836 13.3045 11.4977C13.299 11.5122 13.4926 11.7976 14.9484 13.9217C16.9708 16.8724 17.7591 18.025 17.7646 18.0394C17.7698 18.0529 17.4786 18.0557 16.1255 18.0555L14.4802 18.0552L14.448 18.0086C14.4303 17.983 13.7518 16.9924 12.9402 15.8074C12.1286 14.6224 11.4605 13.6528 11.4556 13.6528C11.4507 13.6528 11.3403 13.7776 11.2102 13.9301C11.0802 14.0827 10.968 14.2136 10.9609 14.221C10.9538 14.2284 10.7745 14.4371 10.5625 14.6848C10.3505 14.9324 10.157 15.1578 10.1325 15.1856C10.1079 15.2134 10.0619 15.2669 10.0303 15.3044C9.9476 15.4026 8.96393 16.5499 8.83494 16.6986C8.7753 16.7674 8.48918 17.1009 8.19913 17.4397L7.67179 18.0558H7.19212C6.8827 18.0558 6.71244 18.0514 6.71244 18.0433C6.71244 18.0365 6.75059 17.9873 6.79721 17.9339C6.84383 17.8805 7.10375 17.578 7.3748 17.2615C7.88243 16.6688 7.97867 16.5566 8.64552 15.7795L9.3648 14.9412L9.97657 14.2282L10.5294 13.584C10.677 13.412 10.8472 13.2141 10.9076 13.1442C10.968 13.0742 11.0175 13.0131 11.0175 13.0084C11.0175 13.0036 10.9088 12.8413 10.7761 12.6477C10.6433 12.4541 9.70198 11.0798 8.68423 9.59382ZM8.74022 8.45555C8.37556 7.9327 8.06708 7.48939 8.05467 7.47042L8.03215 7.43592L8.78379 7.43915L9.53544 7.44237L11.0352 9.59382L14.4836 14.5409L16.4324 17.3365L15.6877 17.3398C15.1024 17.3423 14.9397 17.3396 14.9278 17.3273C14.9195 17.3186 14.4557 16.6558 13.8972 15.8543C12.1495 13.3462 9.4318 9.44717 8.74022 8.45555Z" fill="black"/>
</svg>
