<svg width="32" height="32" viewBox="0 0 32 32" fill="none" xmlns="http://www.w3.org/2000/svg">
<circle cx="16" cy="16" r="16" fill="white"/>
<path fill-rule="evenodd" clip-rule="evenodd" d="M16 2.53968C8.5383 2.53968 2.51356 8.57948 2.51356 16C2.51356 23.4205 8.5383 29.4603 16 29.4603C23.4617 29.4603 29.4864 23.4205 29.4864 16C29.4864 8.57948 23.4617 2.53968 16 2.53968ZM0 16C0 7.15004 7.17678 0 16 0C24.8232 0 32 7.15004 32 16C32 24.85 24.8232 32 16 32C7.17678 32 0 24.85 0 16Z" fill="black"/>
<path d="M18.2772 21.4459C18.205 21.3117 18.1436 21.1574 18.093 20.9829C18.0424 20.8084 17.9991 20.6239 17.9629 20.4293C17.7967 20.597 17.6052 20.7548 17.3884 20.9023C17.1715 21.05 16.9295 21.1809 16.6621 21.2949C16.402 21.4023 16.1128 21.4863 15.7949 21.5466C15.4769 21.6137 15.1337 21.6473 14.7651 21.6473C14.1653 21.6473 13.6124 21.5667 13.1066 21.4057C12.6079 21.2446 12.1779 21.0199 11.8166 20.7313C11.4552 20.4427 11.1734 20.1005 10.971 19.7046C10.7686 19.3019 10.6676 18.8657 10.6676 18.3959C10.6676 17.2484 11.1264 16.3626 12.0442 15.7385C12.9693 15.1077 14.3459 14.7923 16.1743 14.7923H17.8545V14.1481C17.8545 13.6246 17.6702 13.2119 17.3016 12.91C16.9331 12.6013 16.402 12.4469 15.7082 12.4469C15.0939 12.4469 14.6458 12.5711 14.364 12.8193C14.0822 13.061 13.9412 13.3865 13.9412 13.7957H10.9277C10.9277 13.3327 11.0361 12.8932 11.2528 12.4771C11.4769 12.0611 11.7985 11.6953 12.2177 11.3799C12.644 11.0645 13.1608 10.8163 13.7678 10.635C14.3821 10.4471 15.083 10.3532 15.8708 10.3532C16.579 10.3532 17.2366 10.4337 17.8437 10.5948C18.458 10.7558 18.9891 10.9941 19.4371 11.3094C19.8852 11.6248 20.2357 12.0241 20.4886 12.5073C20.7416 12.9838 20.8681 13.5374 20.8681 14.1682V18.8389C20.8681 19.4227 20.9078 19.9059 20.9873 20.2884C21.0668 20.6709 21.1824 20.9997 21.3342 21.2748V21.4459H18.2772ZM15.4047 19.4831C15.7082 19.4831 15.99 19.4495 16.2501 19.3824C16.5103 19.3153 16.7452 19.2281 16.9548 19.1207C17.1643 19.0133 17.345 18.8925 17.4968 18.7583C17.6485 18.6174 17.7678 18.4764 17.8545 18.3355V16.4633H16.3152C15.8455 16.4633 15.4444 16.5069 15.112 16.5941C14.7795 16.6747 14.5085 16.7921 14.299 16.9465C14.0894 17.094 13.934 17.2753 13.8328 17.49C13.7316 17.698 13.6811 17.9262 13.6811 18.1745C13.6811 18.5503 13.822 18.8623 14.1038 19.1107C14.3929 19.3589 14.8265 19.4831 15.4047 19.4831Z" fill="black"/>
</svg>
