<svg width="363" height="119" viewBox="0 0 363 119" fill="none" xmlns="http://www.w3.org/2000/svg">
<path d="M6.64062 24.541H28.125C47.9492 24.541 58.1543 36.4062 58.1543 59.4043C58.1543 82.9883 48.0469 95 28.125 95H6.64062V24.541ZM18.457 34.8438V84.6973H26.6602C39.9414 84.6973 46.0938 76.8359 46.0938 59.5996C46.0938 42.8516 39.8438 34.8438 26.6602 34.8438H18.457ZM99.4199 80.498H110.211C108.941 89.6777 99.8594 96.0742 87.8965 96.0742C72.6621 96.0742 63.873 87.334 63.873 72.0996V63.75C63.873 49.7363 73.2969 40.459 87.5059 40.459C101.568 40.459 110.309 49.6875 110.309 64.5312V71.0254H75.0547V73.6133C75.0547 81.7676 80.084 87.041 87.8477 87.041C93.7559 87.041 98.2969 84.4531 99.4199 80.498ZM87.3105 49.4434C79.6445 49.4434 75.0547 54.668 75.0547 63.4082H99.2734C99.2734 54.7168 94.7812 49.4434 87.3105 49.4434ZM113.65 41.5332H125.857L138.797 83.7207H139.578L152.371 41.5332H164.432L145.486 95H132.693L113.65 41.5332ZM189.307 96.416C175.83 96.416 166.895 88.1152 166.846 75.4688H178.271C178.467 81.6211 182.861 85.6738 189.16 85.6738C196.191 85.6738 200.146 81.377 200.146 73.5645V34.6973H175.244V24.541H211.963V73.7598C211.963 88.0176 203.467 96.416 189.307 96.416ZM254.869 80.498H265.66C264.391 89.6777 255.309 96.0742 243.346 96.0742C228.111 96.0742 219.322 87.334 219.322 72.0996V63.75C219.322 49.7363 228.746 40.459 242.955 40.459C257.018 40.459 265.758 49.6875 265.758 64.5312V71.0254H230.504V73.6133C230.504 81.7676 235.533 87.041 243.297 87.041C249.205 87.041 253.746 84.4531 254.869 80.498ZM242.76 49.4434C235.094 49.4434 230.504 54.668 230.504 63.4082H254.723C254.723 54.7168 250.23 49.4434 242.76 49.4434ZM283.848 95V51.0547H269.541V41.875H283.848V37.4316C283.848 26.0547 289.805 21.3672 303.77 21.3672C305.771 21.3672 316.221 21.5625 317.344 21.709V30.2539C315.83 30.1074 305.967 29.9609 304.014 29.9609C298.057 29.9609 294.98 32.3047 294.98 36.8457V41.875H317.344V51.0547H295.176V95H283.848ZM320.664 95V51.0547H306.357V41.875H320.664V37.4316C320.664 26.0547 326.621 21.3672 340.586 21.3672C342.588 21.3672 353.037 21.5625 354.16 21.709V30.2539C352.646 30.1074 342.783 29.9609 340.83 29.9609C334.873 29.9609 331.797 32.3047 331.797 36.8457V41.875H354.16V51.0547H331.992V95H320.664Z" fill="black"/>
<rect x="165" y="107" width="189" height="12" fill="black"/>
</svg>
