<svg width="413" height="83" viewBox="0 0 413 83" fill="none" xmlns="http://www.w3.org/2000/svg">
<path d="M351.973 51.9482H361.685C360.542 60.21 352.368 65.9668 341.602 65.9668C327.891 65.9668 319.981 58.1006 319.981 44.3896V36.875C319.981 24.2627 328.462 15.9131 341.25 15.9131C353.906 15.9131 361.773 24.2188 361.773 37.5781V43.4229H330.044V45.752C330.044 53.0908 334.57 57.8369 341.558 57.8369C346.875 57.8369 350.962 55.5078 351.973 51.9482ZM341.074 23.999C334.175 23.999 330.044 28.7012 330.044 36.5674H351.841C351.841 28.7451 347.798 23.999 341.074 23.999Z" fill="black"/>
<path d="M294.751 16.0889C305.825 16.0889 312.68 23.8672 312.68 36.6553V45.2246C312.68 58.0566 305.825 65.835 294.751 65.835C287.807 65.835 282.885 62.6709 281.084 57.1338H280.205V81.1279H269.658V16.8799H280.029V24.79H280.908C282.929 19.165 287.807 16.0889 294.751 16.0889ZM291.103 25.0537C284.248 25.0537 279.985 29.7559 279.985 37.3145V44.873C279.985 52.4316 284.248 57.1338 291.103 57.1338C298.003 57.1338 302.265 52.3877 302.265 44.873V37.3145C302.265 29.7559 298.003 25.0537 291.103 25.0537Z" fill="black"/>
<path d="M226.147 82.2705C224.477 82.2705 222.543 82.2266 222.06 82.1826V73.7012C222.499 73.7891 224.037 73.833 224.74 73.833C229.443 73.833 232.035 72.0312 233.53 67.5049L234.189 65.3516L216.918 16.8799H228.124L239.902 55.2881H240.561L252.338 16.8799H263.193L246.01 66.0986C241.835 78.2275 236.782 82.2705 226.147 82.2705Z" fill="black"/>
<path d="M188.524 43.5547V57.3535H202.85V65H169.32V57.3535H178.681V24.5264H168.397V16.8799H188.568V29.1846H190.062C192.04 19.9121 197.401 15.6055 206.542 15.6055C209.266 15.6055 211.771 15.957 213.441 16.6162V27.7344C211.288 26.8994 208.124 26.3721 205.487 26.3721C194.369 26.3721 188.524 32.4365 188.524 43.5547Z" fill="black"/>
<path d="M160.702 32.9199H150.682C149.847 27.4268 146.024 24.3945 140.443 24.3945C133.236 24.3945 129.281 29.5801 129.281 39.0283V42.7197C129.281 52.168 133.236 57.3535 140.443 57.3535C146.068 57.3535 149.803 54.4531 150.682 49.1357H160.702C159.603 59.9023 152.264 65.9668 140.531 65.9668C126.776 65.9668 118.998 57.9688 118.998 43.6426V38.1055C118.998 23.8232 126.776 15.7812 140.531 15.7812C152.308 15.7812 159.559 21.8896 160.702 32.9199Z" fill="black"/>
<path d="M66.4776 47.5977H76.629C77.2442 53.7061 82.1661 57.3096 89.9005 57.3096C97.3712 57.3096 102.161 53.5742 102.161 47.7295C102.161 42.9395 98.9971 40.2148 91.1749 38.3691L85.0665 36.9189C73.4649 34.1504 67.9278 28.3057 67.9278 18.9893C67.9278 7.60742 76.4532 0.3125 89.7686 0.3125C102.513 0.3125 111.17 7.51953 111.566 18.5059H101.458C100.887 12.7051 96.5362 9.27734 89.8565 9.27734C82.8253 9.27734 78.5626 12.5732 78.5626 18.0664C78.5626 22.9443 81.6387 25.7129 89.0655 27.4268L95.1739 28.877C107.435 31.7334 112.708 37.1826 112.708 46.8066C112.708 58.8477 103.919 66.2744 89.7247 66.2744C75.838 66.2744 67.005 59.1992 66.4776 47.5977Z" fill="black"/>
<path d="M29.4347 32.3103C29.4347 34.0854 27.8442 35.5244 25.8823 35.5244C23.9203 35.5244 22.3299 34.0854 22.3299 32.3103L22.3299 19.4538C22.3299 17.6787 23.9203 16.2397 25.8823 16.2397C27.8442 16.2397 29.4347 17.6787 29.4347 19.4538L29.4347 32.3103Z" fill="black"/>
<path d="M45.2935 42.0975V25.9061C45.2935 15.1755 36.6026 6.47653 25.882 6.47653C15.1613 6.47653 6.47049 15.1755 6.47049 25.9061V42.0975C6.47049 52.8282 15.1613 61.5271 25.882 61.5271V68.0036C12.0349 68.0036 0.728677 57.1193 0.0347536 43.432L0 42.0975V25.9061C0 11.5986 11.5878 0 25.882 0C40.1762 0 51.7639 11.5986 51.7639 25.9061V42.0975C51.7639 56.405 40.1762 68.0036 25.882 68.0036V61.5271C36.6026 61.5271 45.2935 52.8282 45.2935 42.0975Z" fill="black"/>
<line x1="367.478" y1="68" x2="412.478" y2="68" stroke="black" stroke-width="6"/>
</svg>
