<svg xmlns="http://www.w3.org/2000/svg" viewBox="0 0 467.96 553.05"><defs><style>.cls-1{fill:#d19c02;}</style></defs><title>android</title><g id="圖層_2" data-name="圖層 2"><g id="Capa_1" data-name="Capa 1"><path class="cls-1" d="M34.23,179.14a33,33,0,0,0-24.26,10A32.62,32.62,0,0,0,0,213V356a33,33,0,0,0,10,24.27,33,33,0,0,0,24.26,10,32.49,32.49,0,0,0,24.1-10A33.34,33.34,0,0,0,68.14,356V213a32.66,32.66,0,0,0-10-23.93A32.65,32.65,0,0,0,34.23,179.14Z"/><path class="cls-1" d="M309.43,50.85,333,7.31Q335.36,3,331.37.67c-2.88-1.34-5.1-.66-6.65,2L300.79,46.54a166.72,166.72,0,0,0-133.61,0L143.25,2.66c-1.55-2.65-3.77-3.33-6.64-2-2.67,1.56-3.22,3.76-1.66,6.64l23.6,43.54q-35.9,18.3-57.17,51A128.85,128.85,0,0,0,80.11,173.5H387.53a128.88,128.88,0,0,0-21.27-71.63A146.27,146.27,0,0,0,309.43,50.85ZM173,114.16a12.49,12.49,0,0,1-9.15,3.84,11.9,11.9,0,0,1-9-3.84,13.26,13.26,0,0,1,0-18.27,11.93,11.93,0,0,1,9-3.82A12.92,12.92,0,0,1,173,114.16Zm140.08,0a11.91,11.91,0,0,1-9,3.84A12.93,12.93,0,0,1,295,95.89a12.44,12.44,0,0,1,9.14-3.82,11.93,11.93,0,0,1,9,3.82,13.26,13.26,0,0,1,0,18.27Z"/><path class="cls-1" d="M81.43,406.8A36.3,36.3,0,0,0,118,443.36h24.6l.33,75.45a33.07,33.07,0,0,0,10,24.27,32.64,32.64,0,0,0,23.93,10A34,34,0,0,0,211,518.81V443.37h45.87v75.44a34.23,34.23,0,1,0,68.45,0V443.37h24.93a36.31,36.31,0,0,0,36.23-36.56V185.45H81.43Z"/><path class="cls-1" d="M433.73,179.14a32.93,32.93,0,0,0-23.93,9.8,32.55,32.55,0,0,0-10,24.1V356a33,33,0,0,0,10,24.27,32.64,32.64,0,0,0,23.93,10A34,34,0,0,0,468,356V213a32.51,32.51,0,0,0-10-24.1A33.34,33.34,0,0,0,433.73,179.14Z"/></g></g></svg>