<svg xmlns="http://www.w3.org/2000/svg" viewBox="0 0 536.1 450.9"><defs><style>.cls-1{fill:#4e7a28;}</style></defs><title>logo</title><g id="圖層_2" data-name="圖層 2"><g id="圖層_1-2" data-name="圖層 1"><g id="icon"><path class="cls-1" d="M313.3,266.2c-33.1,0-40,10.6-40,44.3,0,20.8,19.5,40.9,55.5,67.3,47.7,35,67.2-2.8,68.3-39.3C397.6,319.5,393.9,266.2,313.3,266.2Z"/><path class="cls-1" d="M122.1,98.9S387.6,359.5,452.5,401.1s53.7,15.9,0,32.6C342.8,348.1,104.3,112.4,104.3,112.4Z"/><path class="cls-1" d="M496.4,225.9C494.3,101,392.7,0,268,0S41.7,101,39.6,225.9C16.7,232.8,0,254.6,0,280.4V394c0,31.4,24.6,56.8,54.9,56.8H73.6v-234S86.1,37.9,269.4,37.9,452.9,210.7,452.9,210.7V450.6a20.2,20.2,0,0,0,3,.3h25.3c30.3,0,54.9-25.4,54.9-56.8V280.4C536.1,254.6,519.3,232.7,496.4,225.9Z"/></g></g></g></svg>